<svg width="450" height="150" viewBox="0 0 450 150" fill="none" xmlns="http://www.w3.org/2000/svg">
<path d="M24 111V47" stroke="#993100" stroke-width="2" stroke-miterlimit="1.5" stroke-linecap="round" stroke-linejoin="round"/>
<path d="M24 47L88 15" stroke="#993100" stroke-width="2" stroke-miterlimit="1.5" stroke-linecap="round" stroke-linejoin="round"/>
<path d="M88 15V79" stroke="#993100" stroke-width="2" stroke-miterlimit="1.5" stroke-linecap="round" stroke-linejoin="round" stroke-dasharray="2 5"/>
<path d="M24 111L88 79" stroke="#993100" stroke-width="2" stroke-miterlimit="1.5" stroke-linecap="round" stroke-linejoin="round" stroke-dasharray="2 5"/>
<path d="M72 135V71L136 39" stroke="#993100" stroke-width="2" stroke-miterlimit="1.5" stroke-linecap="round" stroke-linejoin="round"/>
<path d="M136 39V103" stroke="#993100" stroke-width="2" stroke-miterlimit="1.5" stroke-linecap="round" stroke-linejoin="round"/>
<path d="M136 103L72 135" stroke="#993100" stroke-width="2" stroke-miterlimit="1.5" stroke-linecap="round" stroke-linejoin="round"/>
<path d="M24 47L72 71" stroke="#993100" stroke-width="2" stroke-miterlimit="1.5" stroke-linecap="round" stroke-linejoin="round"/>
<path d="M24 111L72 135" stroke="#993100" stroke-width="2" stroke-miterlimit="1.5" stroke-linecap="round" stroke-linejoin="round"/>
<path d="M88 15L136 39" stroke="#993100" stroke-width="2" stroke-miterlimit="1.5" stroke-linecap="round" stroke-linejoin="round"/>
<path d="M88 79L136 103" stroke="#993100" stroke-width="2" stroke-miterlimit="1.5" stroke-linecap="round" stroke-linejoin="round" stroke-dasharray="2 5"/>
<path d="M167.64 107L185.08 43H190.68L208.12 107H204.52L187.96 46.04H187.48L171 107H167.64ZM176.92 80.92V77.88H199.16V80.92H176.92ZM225.47 107V43H241.07C245.23 43 248.777 43.6933 251.71 45.08C254.697 46.4667 256.963 48.4933 258.51 51.16C260.057 53.7733 260.83 56.9467 260.83 60.68C260.83 64.36 260.057 67.5067 258.51 70.12C256.963 72.7333 254.697 74.7333 251.71 76.12C248.777 77.5067 245.23 78.2 241.07 78.2H228.83V107H225.47ZM257.55 107L239.63 77.4H243.31L261.47 107H257.55ZM228.83 75.32H241.55C246.563 75.32 250.457 74.04 253.23 71.48C256.057 68.92 257.47 65.32 257.47 60.68C257.47 56.04 256.057 52.44 253.23 49.88C250.457 47.32 246.563 46.04 241.55 46.04H228.83V75.32ZM278.9 107V43H291.54C298.047 43 303.06 44.44 306.58 47.32C310.153 50.2 311.94 54.3333 311.94 59.72C311.94 63.4533 310.98 66.5467 309.06 69C307.14 71.4533 304.367 73.0533 300.74 73.8V74.6C304.58 75.56 307.513 77.3733 309.54 80.04C311.62 82.7067 312.66 86.0667 312.66 90.12C312.66 95.5067 310.82 99.6667 307.14 102.6C303.513 105.533 298.313 107 291.54 107H278.9ZM282.26 103.96H291.54C297.247 103.96 301.62 102.76 304.66 100.36C307.753 97.96 309.3 94.5467 309.3 90.12C309.3 85.5867 307.753 82.0933 304.66 79.64C301.62 77.1867 297.247 75.96 291.54 75.96H282.26V103.96ZM282.26 73.08H291.54C297.033 73.08 301.247 71.9333 304.18 69.64C307.167 67.2933 308.66 63.9867 308.66 59.72C308.66 55.2933 307.193 51.9067 304.26 49.56C301.327 47.2133 297.087 46.04 291.54 46.04H282.26V73.08ZM346.73 107.96C340.17 107.96 335.237 105.24 331.93 99.8C328.677 94.3067 327.05 86.04 327.05 75C327.05 63.96 328.677 55.72 331.93 50.28C335.183 44.7867 340.117 42.04 346.73 42.04C353.29 42.04 358.197 44.7867 361.45 50.28C364.757 55.72 366.41 63.96 366.41 75C366.41 86.04 364.783 94.3067 361.53 99.8C358.277 105.24 353.343 107.96 346.73 107.96ZM346.73 104.92C352.17 104.92 356.25 102.44 358.97 97.48C361.69 92.52 363.05 85.0267 363.05 75C363.05 64.9733 361.69 57.48 358.97 52.52C356.25 47.56 352.17 45.08 346.73 45.08C341.29 45.08 337.21 47.56 334.49 52.52C331.77 57.48 330.41 64.9733 330.41 75C330.41 85.0267 331.77 92.52 334.49 97.48C337.21 102.44 341.29 104.92 346.73 104.92ZM381.2 107L396.08 83.96L380.32 59.96H384.24L398.56 81.64L398.64 82.44H399.12L399.2 81.64L413.6 59.96H417.44L401.68 83.72L416.56 107H412.56L399.28 86.12L399.2 85.24H398.72L398.64 86.12L385.12 107H381.2Z" fill="#993100"/>
</svg>
