<svg width="1000" height="600" viewBox="0 0 1000 600" fill="none" xmlns="http://www.w3.org/2000/svg">
<g clip-path="url(#clip0_211_7)">
<mask id="mask0_211_7" style="mask-type:luminance" maskUnits="userSpaceOnUse" x="0" y="0" width="1000" height="600">
<path d="M0 0H1000V600H0V0Z" fill="white"/>
<path d="M875 59H941V125H875V59Z" fill="black"/>
</mask>
<g mask="url(#mask0_211_7)">
<rect width="1000" height="600" fill="#AF3800"/>
<path d="M122 185.8C110.8 185.8 102.36 181.64 96.68 173.32C91.08 165 88.28 152.56 88.28 136C88.28 119.44 91.08 107 96.68 98.68C102.36 90.36 110.8 86.2 122 86.2C133.2 86.2 141.6 90.36 147.2 98.68C152.88 107 155.72 119.44 155.72 136C155.72 152.56 152.88 165 147.2 173.32C141.6 181.64 133.2 185.8 122 185.8ZM122 175.6C129.76 175.6 135.52 172.36 139.28 165.88C143.04 159.4 144.92 149.44 144.92 136C144.92 122.56 143.04 112.6 139.28 106.12C135.52 99.64 129.76 96.4 122 96.4C114.24 96.4 108.48 99.64 104.72 106.12C100.96 112.6 99.08 122.56 99.08 136C99.08 149.44 100.96 159.4 104.72 165.88C108.48 172.36 114.24 175.6 122 175.6ZM175.303 184L197.263 149.68L173.983 112.48H186.223L204.703 141.76L205.543 144.52H206.503L207.343 141.76L226.543 112.48H238.063L214.423 148.72L236.743 184H224.263L206.983 156.88L206.263 154.24H205.183L204.463 156.88L187.063 184H175.303ZM291.727 184H281.287V122.2H265.087V112.48H281.287V103.84C281.287 96.48 283.287 90.76 287.287 86.68C291.287 82.52 296.887 80.44 304.087 80.44C310.967 80.44 316.447 82.28 320.527 85.96C324.607 89.56 326.847 94.64 327.247 101.2H317.647C316.767 97.6 315.167 94.84 312.847 92.92C310.607 91 307.687 90.04 304.087 90.04C300.167 90.04 297.127 91.28 294.967 93.76C292.807 96.24 291.727 99.76 291.727 104.32V112.48H319.087V122.2H291.727V184ZM374.07 185.8C367.67 185.8 362.11 184.28 357.39 181.24C352.67 178.2 349.03 173.88 346.47 168.28C343.91 162.68 342.63 156 342.63 148.24C342.63 140.48 343.91 133.8 346.47 128.2C349.03 122.6 352.67 118.28 357.39 115.24C362.11 112.2 367.67 110.68 374.07 110.68C380.55 110.68 386.11 112.2 390.75 115.24C395.47 118.28 399.11 122.6 401.67 128.2C404.23 133.8 405.51 140.48 405.51 148.24C405.51 156 404.23 162.68 401.67 168.28C399.11 173.88 395.47 178.2 390.75 181.24C386.11 184.28 380.55 185.8 374.07 185.8ZM374.07 176.08C380.71 176.08 385.87 173.64 389.55 168.76C393.31 163.88 395.19 157.04 395.19 148.24C395.19 139.44 393.31 132.6 389.55 127.72C385.87 122.84 380.71 120.4 374.07 120.4C367.43 120.4 362.23 122.84 358.47 127.72C354.79 132.6 352.95 139.44 352.95 148.24C352.95 157.04 354.79 163.88 358.47 168.76C362.23 173.64 367.43 176.08 374.07 176.08ZM427.854 112.48H454.374V118.12H457.494C459.014 115.72 461.054 113.88 463.614 112.6C466.174 111.32 469.174 110.68 472.614 110.68C478.454 110.68 483.014 112.64 486.294 116.56C489.654 120.4 491.334 125.72 491.334 132.52V143.2H480.534V134.32C480.534 125.12 476.734 120.52 469.134 120.52C464.334 120.52 460.734 122.52 458.334 126.52C456.014 130.52 454.854 136.44 454.854 144.28V174.28H478.494V184H430.494V174.28H444.414V122.2H427.854V112.48ZM537.677 185.8C531.757 185.8 526.637 184.28 522.317 181.24C517.997 178.2 514.637 173.88 512.237 168.28C509.917 162.68 508.757 156 508.757 148.24C508.757 140.48 509.917 133.8 512.237 128.2C514.637 122.6 517.997 118.28 522.317 115.24C526.637 112.2 531.757 110.68 537.677 110.68C541.837 110.68 545.597 111.52 548.957 113.2C552.317 114.88 554.837 117.16 556.517 120.04H559.757V82.24H570.197V184H559.757V176.44H556.517C554.837 179.32 552.317 181.6 548.957 183.28C545.597 184.96 541.837 185.8 537.677 185.8ZM539.717 176.08C546.197 176.08 551.237 173.64 554.837 168.76C558.437 163.88 560.237 157.04 560.237 148.24C560.237 139.44 558.437 132.6 554.837 127.72C551.237 122.84 546.197 120.4 539.717 120.4C533.157 120.4 528.077 122.84 524.477 127.72C520.877 132.6 519.077 139.44 519.077 148.24C519.077 157.04 520.877 163.88 524.477 168.76C528.077 173.64 533.157 176.08 539.717 176.08ZM87.56 348L113.24 252H130.76L156.44 348H145.04L122.24 260.4H121.16L98.24 348H87.56ZM102.32 313.32V303.12H141.8V313.32H102.32ZM176.503 348V337.92H200.623V262.08H176.503V252H235.543V262.08H211.423V337.92H235.543V348H176.503ZM354.03 323.52C355.15 328.8 357.47 332.8 360.99 335.52C364.59 338.24 369.35 339.6 375.27 339.6C381.27 339.6 385.95 338.04 389.31 334.92C392.75 331.72 394.47 327.36 394.47 321.84C394.47 317.52 393.19 314.04 390.63 311.4C388.07 308.76 384.27 307.04 379.23 306.24L369.03 304.8C361.03 303.52 354.99 300.68 350.91 296.28C346.83 291.8 344.79 285.8 344.79 278.28C344.79 272.6 346.03 267.68 348.51 263.52C351.07 259.28 354.67 256 359.31 253.68C363.95 251.36 369.39 250.2 375.63 250.2C381.87 250.2 387.27 251.32 391.83 253.56C396.47 255.8 400.07 259.08 402.63 263.4C405.27 267.64 406.79 272.8 407.19 278.88H396.87C395.83 272.8 393.51 268.2 389.91 265.08C386.39 261.96 381.63 260.4 375.63 260.4C369.31 260.4 364.35 262 360.75 265.2C357.15 268.32 355.35 272.68 355.35 278.28C355.35 282.68 356.63 286.2 359.19 288.84C361.83 291.48 365.63 293.2 370.59 294L380.79 295.44C388.87 296.64 394.91 299.48 398.91 303.96C402.99 308.44 405.03 314.4 405.03 321.84C405.03 327.52 403.79 332.48 401.31 336.72C398.91 340.88 395.47 344.12 390.99 346.44C386.59 348.68 381.35 349.8 375.27 349.8C369.03 349.8 363.59 348.76 358.95 346.68C354.31 344.6 350.71 341.6 348.15 337.68C345.59 333.76 344.11 329.04 343.71 323.52H354.03ZM475.494 304.32V313.56L452.694 317.04C448.774 317.76 445.814 319.16 443.814 321.24C441.814 323.24 440.814 325.92 440.814 329.28C440.814 332.56 441.974 335.2 444.294 337.2C446.694 339.12 449.814 340.08 453.654 340.08C457.574 340.08 461.054 339.2 464.094 337.44C467.214 335.68 469.694 333.28 471.534 330.24C473.374 327.12 474.294 323.64 474.294 319.8V300.84C474.294 295.64 472.774 291.6 469.734 288.72C466.694 285.76 462.494 284.28 457.134 284.28C453.374 284.28 450.014 284.96 447.054 286.32C444.174 287.6 441.814 289.48 439.974 291.96C438.214 294.36 437.054 297.32 436.494 300.84H426.534C426.934 295.48 428.454 290.84 431.094 286.92C433.814 283 437.414 280 441.894 277.92C446.374 275.76 451.574 274.68 457.494 274.68C466.054 274.68 472.654 276.88 477.294 281.28C482.014 285.68 484.374 291.92 484.374 300V348H474.294V340.8H471.054C469.134 343.68 466.494 345.88 463.134 347.4C459.854 348.92 455.974 349.68 451.494 349.68C447.094 349.68 443.254 348.88 439.974 347.28C436.774 345.6 434.294 343.28 432.534 340.32C430.774 337.28 429.894 333.72 429.894 329.64C429.894 323.8 431.734 319.04 435.414 315.36C439.094 311.6 444.294 309.2 451.014 308.16L475.494 304.32ZM543.797 348H533.357V286.2H517.157V276.48H533.357V267.84C533.357 260.48 535.357 254.76 539.357 250.68C543.357 246.52 548.957 244.44 556.157 244.44C563.037 244.44 568.517 246.28 572.597 249.96C576.677 253.56 578.917 258.64 579.317 265.2H569.717C568.837 261.6 567.237 258.84 564.917 256.92C562.677 255 559.757 254.04 556.157 254.04C552.237 254.04 549.197 255.28 547.037 257.76C544.877 260.24 543.797 263.76 543.797 268.32V276.48H571.157V286.2H543.797V348ZM604.421 306.36H649.421L645.941 310.56C645.941 302 644.341 295.48 641.141 291C638.021 286.44 633.421 284.16 627.341 284.16C620.941 284.16 615.941 286.56 612.341 291.36C608.741 296.16 606.941 302.92 606.941 311.64C606.941 320.92 608.741 328.04 612.341 333C615.941 337.88 621.141 340.32 627.941 340.32C632.581 340.32 636.541 339.12 639.821 336.72C643.181 334.24 645.781 330.64 647.621 325.92H657.461C656.261 330.96 654.261 335.24 651.461 338.76C648.741 342.28 645.381 345 641.381 346.92C637.461 348.84 632.981 349.8 627.941 349.8C621.301 349.8 615.661 348.32 611.021 345.36C606.381 342.32 602.821 337.96 600.341 332.28C597.941 326.6 596.741 319.72 596.741 311.64C596.741 303.96 597.981 297.4 600.461 291.96C602.941 286.44 606.461 282.2 611.021 279.24C615.661 276.2 621.101 274.68 627.341 274.68C633.341 274.68 638.461 276.08 642.701 278.88C646.941 281.68 650.141 285.76 652.301 291.12C654.541 296.4 655.661 302.84 655.661 310.44C655.661 311.32 655.621 312.2 655.541 313.08C655.541 313.88 655.501 314.68 655.421 315.48H604.421V306.36ZM705.244 258.48V276.48H738.364V286.2H705.244V325.2C705.244 330 706.244 333.68 708.244 336.24C710.324 338.8 713.324 340.08 717.244 340.08C721.324 340.08 724.484 338.72 726.724 336C729.044 333.28 730.564 329.16 731.284 323.64H740.644C740.164 332.12 737.884 338.6 733.804 343.08C729.804 347.56 724.164 349.8 716.884 349.8C709.844 349.8 704.404 347.72 700.564 343.56C696.804 339.32 694.924 333.28 694.924 325.44V286.2H678.364V276.48H694.924V258.48H705.244ZM761.788 276.48H772.948L793.228 332.52H800.668L797.788 342H785.548L761.788 276.48ZM827.188 276.48L798.988 359.52C797.388 364.08 795.148 367.6 792.268 370.08C789.388 372.56 786.028 373.8 782.188 373.8C776.748 373.8 772.508 372.24 769.468 369.12C766.508 366.08 764.748 361.56 764.188 355.56H773.788C774.668 358.6 775.708 360.8 776.908 362.16C778.108 363.6 779.748 364.32 781.828 364.32C783.668 364.32 785.188 363.68 786.388 362.4C787.588 361.2 788.708 359.24 789.748 356.52L816.628 276.48H827.188ZM92.48 512V501.92H116.6V426.08H92.48V416H151.52V426.08H127.4V501.92H151.52V512H92.48ZM178.903 512V440.48H189.343V446.36H192.583C194.423 443.96 196.863 442.08 199.903 440.72C202.943 439.36 206.223 438.68 209.743 438.68C214.863 438.68 219.263 439.8 222.943 442.04C226.623 444.2 229.463 447.32 231.463 451.4C233.543 455.48 234.583 460.28 234.583 465.8V512H224.143V468.44C224.143 462.04 222.623 457.16 219.583 453.8C216.623 450.36 212.343 448.64 206.743 448.64C201.143 448.64 196.823 450.36 193.783 453.8C190.823 457.16 189.343 462.04 189.343 468.44V512H178.903ZM266.527 440.48H298.807V502.28H320.767V512H266.527V502.28H288.487V450.2H266.527V440.48ZM292.807 428.96C290.167 428.96 288.087 428.24 286.567 426.8C285.127 425.28 284.407 423.12 284.407 420.32C284.407 417.68 285.127 415.6 286.567 414.08C288.087 412.56 290.167 411.8 292.807 411.8C295.447 411.8 297.487 412.56 298.927 414.08C300.447 415.6 301.207 417.72 301.207 420.44C301.207 423.16 300.447 425.28 298.927 426.8C297.487 428.24 295.447 428.96 292.807 428.96ZM369.15 422.48V440.48H402.27V450.2H369.15V489.2C369.15 494 370.15 497.68 372.15 500.24C374.23 502.8 377.23 504.08 381.15 504.08C385.23 504.08 388.39 502.72 390.63 500C392.95 497.28 394.47 493.16 395.19 487.64H404.55C404.07 496.12 401.79 502.6 397.71 507.08C393.71 511.56 388.07 513.8 380.79 513.8C373.75 513.8 368.31 511.72 364.47 507.56C360.71 503.32 358.83 497.28 358.83 489.44V450.2H342.27V440.48H358.83V422.48H369.15ZM434.574 440.48H466.854V502.28H488.814V512H434.574V502.28H456.534V450.2H434.574V440.48ZM460.854 428.96C458.214 428.96 456.134 428.24 454.614 426.8C453.174 425.28 452.454 423.12 452.454 420.32C452.454 417.68 453.174 415.6 454.614 414.08C456.134 412.56 458.214 411.8 460.854 411.8C463.494 411.8 465.534 412.56 466.974 414.08C468.494 415.6 469.254 417.72 469.254 420.44C469.254 423.16 468.494 425.28 466.974 426.8C465.534 428.24 463.494 428.96 460.854 428.96ZM559.517 468.32V477.56L536.717 481.04C532.797 481.76 529.837 483.16 527.837 485.24C525.837 487.24 524.837 489.92 524.837 493.28C524.837 496.56 525.997 499.2 528.317 501.2C530.717 503.12 533.837 504.08 537.677 504.08C541.597 504.08 545.077 503.2 548.117 501.44C551.237 499.68 553.717 497.28 555.557 494.24C557.397 491.12 558.317 487.64 558.317 483.8V464.84C558.317 459.64 556.797 455.6 553.757 452.72C550.717 449.76 546.517 448.28 541.157 448.28C537.397 448.28 534.037 448.96 531.077 450.32C528.197 451.6 525.837 453.48 523.997 455.96C522.237 458.36 521.077 461.32 520.517 464.84H510.557C510.957 459.48 512.477 454.84 515.117 450.92C517.837 447 521.437 444 525.917 441.92C530.397 439.76 535.597 438.68 541.517 438.68C550.077 438.68 556.677 440.88 561.317 445.28C566.037 449.68 568.397 455.92 568.397 464V512H558.317V504.8H555.077C553.157 507.68 550.517 509.88 547.157 511.4C543.877 512.92 539.997 513.68 535.517 513.68C531.117 513.68 527.277 512.88 523.997 511.28C520.797 509.6 518.317 507.28 516.557 504.32C514.797 501.28 513.917 497.72 513.917 493.64C513.917 487.8 515.757 483.04 519.437 479.36C523.117 475.6 528.317 473.2 535.037 472.16L559.517 468.32ZM621.221 422.48V440.48H654.341V450.2H621.221V489.2C621.221 494 622.221 497.68 624.221 500.24C626.301 502.8 629.301 504.08 633.221 504.08C637.301 504.08 640.461 502.72 642.701 500C645.021 497.28 646.541 493.16 647.261 487.64H656.621C656.141 496.12 653.861 502.6 649.781 507.08C645.781 511.56 640.141 513.8 632.861 513.8C625.821 513.8 620.381 511.72 616.541 507.56C612.781 503.32 610.901 497.28 610.901 489.44V450.2H594.341V440.48H610.901V422.48H621.221ZM686.644 440.48H718.924V502.28H740.884V512H686.644V502.28H708.604V450.2H686.644V440.48ZM712.924 428.96C710.284 428.96 708.204 428.24 706.684 426.8C705.244 425.28 704.524 423.12 704.524 420.32C704.524 417.68 705.244 415.6 706.684 414.08C708.204 412.56 710.284 411.8 712.924 411.8C715.564 411.8 717.604 412.56 719.044 414.08C720.564 415.6 721.324 417.72 721.324 420.44C721.324 423.16 720.564 425.28 719.044 426.8C717.604 428.24 715.564 428.96 712.924 428.96ZM761.548 440.48H772.708L793.948 502.52H795.028L816.268 440.48H826.828L802.228 512H786.148L761.548 440.48ZM856.491 470.36H901.491L898.011 474.56C898.011 466 896.411 459.48 893.211 455C890.091 450.44 885.491 448.16 879.411 448.16C873.011 448.16 868.011 450.56 864.411 455.36C860.811 460.16 859.011 466.92 859.011 475.64C859.011 484.92 860.811 492.04 864.411 497C868.011 501.88 873.211 504.32 880.011 504.32C884.651 504.32 888.611 503.12 891.891 500.72C895.251 498.24 897.851 494.64 899.691 489.92H909.531C908.331 494.96 906.331 499.24 903.531 502.76C900.811 506.28 897.451 509 893.451 510.92C889.531 512.84 885.051 513.8 880.011 513.8C873.371 513.8 867.731 512.32 863.091 509.36C858.451 506.32 854.891 501.96 852.411 496.28C850.011 490.6 848.811 483.72 848.811 475.64C848.811 467.96 850.051 461.4 852.531 455.96C855.011 450.44 858.531 446.2 863.091 443.24C867.731 440.2 873.171 438.68 879.411 438.68C885.411 438.68 890.531 440.08 894.771 442.88C899.011 445.68 902.211 449.76 904.371 455.12C906.611 460.4 907.731 466.84 907.731 474.44C907.731 475.32 907.691 476.2 907.611 477.08C907.611 477.88 907.571 478.68 907.491 479.48H856.491V470.36Z" fill="white"/>
</g>
</g>
<defs>
<clipPath id="clip0_211_7">
<rect width="1000" height="600" fill="white"/>
</clipPath>
</defs>
</svg>
