<svg width="1000" height="380" viewBox="0 0 1000 380" fill="none" xmlns="http://www.w3.org/2000/svg">
<rect width="1000" height="380" fill="#AF3800"/>
<path d="M137.5 293.5C114 293.5 96.25 284.833 84.25 267.5C72.4167 250.167 66.5 224.333 66.5 190C66.5 155.667 72.4167 129.833 84.25 112.5C96.25 95.1667 114 86.5 137.5 86.5C161 86.5 178.667 95.1667 190.5 112.5C202.5 129.833 208.5 155.667 208.5 190C208.5 224.333 202.5 250.167 190.5 267.5C178.667 284.833 161 293.5 137.5 293.5ZM137.5 277C155.333 277 168.667 269.833 177.5 255.5C186.5 241 191 219.167 191 190C191 160.833 186.5 139.083 177.5 124.75C168.667 110.25 155.333 103 137.5 103C119.667 103 106.25 110.25 97.25 124.75C88.4167 139.083 84 160.833 84 190C84 219.167 88.4167 241 97.25 255.5C106.25 269.833 119.667 277 137.5 277ZM246.408 290L303.908 90H332.908L390.408 290H371.658L318.658 104.5H316.908L264.158 290H246.408ZM277.658 214V197.5H359.908V214H277.658ZM437.816 290V273.5H490.566V106.5H437.816V90H560.816V106.5H508.066V273.5H560.816V290H437.816ZM633.725 239C635.558 251.5 640.641 261 648.975 267.5C657.475 273.833 668.975 277 683.475 277C697.141 277 707.891 273.417 715.725 266.25C723.725 258.917 727.725 249 727.725 236.5C727.725 226 724.725 217.833 718.725 212C712.891 206 704.058 202.167 692.225 200.5L668.975 197.75C652.475 195.417 639.975 189.75 631.475 180.75C622.975 171.583 618.725 159.333 618.725 144C618.725 132.167 621.308 122 626.475 113.5C631.808 104.833 639.308 98.1667 648.975 93.5C658.641 88.8333 670.058 86.5 683.225 86.5C696.558 86.5 707.975 88.8333 717.475 93.5C727.141 98 734.641 104.667 739.975 113.5C745.475 122.333 748.641 133.167 749.475 146H732.475C730.641 131.833 725.558 121.167 717.225 114C708.891 106.667 697.558 103 683.225 103C668.558 103 657.058 106.667 648.725 114C640.391 121.333 636.225 131.333 636.225 144C636.225 154.5 639.141 162.75 644.975 168.75C650.975 174.583 659.891 178.333 671.725 180L694.975 182.75C711.475 185.083 723.975 190.75 732.475 199.75C740.975 208.75 745.225 221 745.225 236.5C745.225 248.167 742.641 258.25 737.475 266.75C732.475 275.25 725.391 281.833 716.225 286.5C707.058 291.167 696.141 293.5 683.475 293.5C669.975 293.5 658.391 291.417 648.725 287.25C639.058 283.083 631.475 276.917 625.975 268.75C620.641 260.583 617.475 250.667 616.475 239H633.725ZM799.633 290V273.5H852.383V106.5H799.633V90H922.633V106.5H869.883V273.5H922.633V290H799.633Z" fill="white"/>
</svg>
